# xmcd
#
# Track frame offsets: 
#        150
#        19275
#        35437
#        54425
#        75637
#        94675
#        112525
#        130537
#        149787
#        168050
#
# Disc length: 2512 seconds
#
# Revision: 0
# Processed by: cddbd v1.5.2PL0 Copyright (c) Steve Scherf et al.
# Submitted via: ExactAudioCopy v1.0b3
#
DISCID=7309ce0a
DTITLE=方季惟 - 《想你想到梦里头》蓝白台版
DYEAR=1992
DGENRE=Acid
TTITLE0=想你想到梦里头
TTITLE1=漂鸟
TTITLE2=伤心街口
TTITLE3=可果真的这样走
TTITLE4=出口
TTITLE5=给我一个电话
TTITLE6=我不能忘记你好像你忘记我一样快
TTITLE7=离开你是我寂寞的开始
TTITLE8=情话
TTITLE9=拜访你的心情
EXTD=
EXTT0=
EXTT1=
EXTT2=
EXTT3=
EXTT4=
EXTT5=
EXTT6=
EXTT7=
EXTT8=
EXTT9=
PLAYORDER=
